<svg width="765" height="685" viewBox="0 0 765 685" fill="none" xmlns="http://www.w3.org/2000/svg">
<path d="M89.6286 515.28C88.9738 515.314 88.3256 515.12 87.7718 514.724C87.218 514.327 86.7854 513.748 86.5325 513.065C86.2797 512.382 86.2188 511.627 86.3582 510.903C86.4976 510.179 86.8305 509.521 87.3118 509.018C87.3924 508.656 87.4502 508.396 87.5308 508.034C87.502 507.955 87.473 507.877 87.4438 507.798C86.7842 506.037 85.6788 504.536 84.2667 503.483C82.8545 502.429 81.1985 501.871 79.5066 501.878C77.8146 501.886 76.1623 502.458 74.7571 503.523C73.3519 504.588 72.2565 506.098 71.6085 507.864C69.0185 514.914 65.7211 521.976 64.9091 529.43C64.5516 532.725 64.7024 536.064 65.355 539.301C59.2719 524.304 56.1131 508.005 56.0928 491.507C56.0915 487.368 56.295 483.231 56.7024 479.117C57.0391 475.744 57.5061 472.396 58.1036 469.071C61.364 451.031 68.3642 434.123 78.5294 419.735C83.4493 416.701 87.4281 412.036 89.9296 406.368C90.8359 404.33 91.4764 402.155 91.8312 399.91C91.2762 399.992 90.7121 400.044 90.1571 400.085C89.9842 400.095 89.8023 400.105 89.6294 400.116L89.5642 400.119C88.9542 400.15 88.3494 399.981 87.8224 399.632C87.2954 399.284 86.8689 398.771 86.594 398.154C86.3192 397.538 86.2078 396.845 86.2732 396.159C86.3387 395.473 86.5782 394.823 86.963 394.287C87.2026 393.954 87.4424 393.621 87.6823 393.288C88.0462 392.774 88.4193 392.27 88.7832 391.756C88.8252 391.707 88.8647 391.656 88.9015 391.602C89.3201 391.015 89.7385 390.44 90.1571 389.854C89.3931 388.514 88.3656 387.391 87.1546 386.573C82.9603 383.797 77.1737 385.72 74.1439 390.008C71.105 394.296 70.5319 400.311 71.5872 405.668C72.6251 410.227 74.3419 414.552 76.6642 418.46C76.4367 418.789 76.2001 419.108 75.9727 419.437C71.8147 425.479 68.1907 431.968 65.1527 438.809C65.8915 431.145 65.0097 423.392 62.5799 416.187C60.1172 409.473 55.5014 403.819 51.4367 398.015C46.5542 391.043 36.5423 394.085 35.6822 402.923C35.6738 403.009 35.6657 403.094 35.6578 403.18C36.2615 403.565 36.8525 403.973 37.4308 404.406C38.1572 404.954 38.7201 405.738 39.0457 406.654C39.3712 407.57 39.4443 408.576 39.2554 409.54C39.0664 410.504 38.6242 411.381 37.9866 412.056C37.3491 412.731 36.546 413.173 35.6826 413.324L35.5941 413.339C35.8092 415.798 36.1894 418.235 36.7314 420.63C38.3019 427.313 41.0772 433.558 44.8833 438.972C48.6894 444.386 53.4441 448.854 58.8495 452.094C59.2043 452.3 59.5502 452.506 59.905 452.701C56.8527 462.477 54.9381 472.66 54.2094 482.993C53.7968 489.09 53.8212 495.214 54.2822 501.307L54.2549 501.091C53.0902 494.316 49.8925 488.204 45.2019 483.785C38.2352 477.317 28.3926 474.936 20.8768 469.737C20.078 469.157 19.1493 468.848 18.2001 468.845C17.2508 468.843 16.3208 469.147 15.5195 469.722C14.7183 470.297 14.0793 471.119 13.6779 472.092C13.2765 473.064 13.1295 474.145 13.2542 475.209C13.2643 475.284 13.2745 475.36 13.2849 475.436C14.4053 475.951 15.4962 476.546 16.5512 477.215C17.155 477.6 17.746 478.008 18.3242 478.44C19.0506 478.989 19.6135 479.772 19.9391 480.689C20.2647 481.605 20.3378 482.611 20.1488 483.575C19.9598 484.539 19.5176 485.416 18.8801 486.091C18.2425 486.766 17.4394 487.208 16.576 487.358L16.4875 487.374C16.4238 487.384 16.3692 487.394 16.3056 487.405C18.22 492.57 20.9068 497.325 24.2484 501.461C28.3765 506.467 33.3658 510.467 38.9105 513.217C44.4552 515.966 50.4383 517.407 56.4931 517.45H56.5022C58.1458 525.522 60.5272 533.379 63.6081 540.895H88.9925C89.0835 540.576 89.1654 540.247 89.2473 539.928C86.8976 540.095 84.5387 539.936 82.2233 539.455C84.1066 536.843 85.99 534.211 87.8734 531.599C87.9154 531.55 87.9549 531.499 87.9917 531.445C88.947 530.108 89.9114 528.782 90.8667 527.445L90.8672 527.443C90.9182 523.346 90.5021 519.258 89.6294 515.281L89.6286 515.28Z" fill="#F2F2F2"/>
<path d="M388.99 541.282C388.99 541.439 388.963 541.594 388.91 541.738C388.857 541.883 388.78 542.014 388.682 542.125C388.584 542.235 388.468 542.323 388.34 542.383C388.212 542.442 388.075 542.473 387.937 542.472H1.05283C0.773604 542.472 0.505822 542.347 0.308379 542.124C0.110935 541.901 0 541.598 0 541.282C0 540.967 0.110935 540.664 0.308379 540.441C0.505822 540.218 0.773604 540.093 1.05283 540.093H387.937C388.075 540.092 388.212 540.123 388.34 540.182C388.468 540.242 388.584 540.329 388.682 540.44C388.78 540.551 388.857 540.682 388.91 540.827C388.963 540.971 388.99 541.126 388.99 541.282V541.282Z" fill="#CCCCCC"/>
<path d="M202.588 388.439C201.131 388.045 199.615 388.017 198.147 388.356C196.679 388.696 195.295 389.395 194.093 390.405C192.89 391.414 191.897 392.71 191.186 394.199C190.474 395.689 190.059 397.337 189.972 399.028L167.855 407.727L169.254 424.206L200.335 411.425C202.858 411.403 205.285 410.336 207.158 408.426C209.03 406.516 210.218 403.896 210.496 401.063C210.773 398.229 210.121 395.379 208.664 393.053C207.207 390.726 205.044 389.084 202.588 388.439V388.439Z" fill="#FFB6B6"/>
<path d="M166.542 436.337C157.748 443.264 142.254 446.808 121.168 446.646C120.001 446.649 118.845 446.379 117.775 445.851C116.705 445.324 115.744 444.551 114.952 443.582C109.309 436.942 109.53 421.785 109.565 420.321L103.381 393.981C103.248 393.578 99.825 382.771 103.307 375.224C104.048 373.648 105.083 372.271 106.339 371.189C107.595 370.107 109.044 369.345 110.585 368.956C123.664 365.034 135.958 404.599 137.52 409.827L155.874 406.294L168.549 405.705L181.444 397.661L188.705 417.299L170.737 432.138C169.498 433.728 168.088 435.139 166.542 436.337V436.337Z" fill="#2F2E41"/>
<path d="M201.956 654.127L215.475 654.841L224.346 596.247L204.392 595.193L201.956 654.127Z" fill="#FFB6B6"/>
<path d="M198.915 646.412L220.346 646.1L219.918 656.448L239.58 673.382C240.551 674.218 241.261 675.383 241.604 676.707C241.948 678.031 241.908 679.444 241.491 680.741C241.074 682.038 240.3 683.15 239.284 683.915C238.268 684.68 237.062 685.057 235.843 684.993L210.399 683.648L206.437 673.18L204.301 683.326L194.708 682.819L198.915 646.412Z" fill="#2F2E41"/>
<path d="M343.109 528.317L348.034 514.07L301.753 485.82L278.373 502.428L343.109 528.317Z" fill="#FFB6B6"/>
<path d="M335.669 529.105L342.266 506.058L350.804 509.828L371.291 494.195C372.303 493.422 373.507 493.036 374.727 493.091C375.947 493.147 377.119 493.642 378.072 494.504C379.026 495.366 379.71 496.55 380.026 497.882C380.342 499.215 380.273 500.627 379.829 501.913L370.559 528.725L360.516 529.617L368.337 535.151L364.842 545.261L335.669 529.105Z" fill="#2F2E41"/>
<path d="M77.2333 485.915C77.2333 485.915 82.8482 526.426 109.39 529.426C135.932 532.425 160.398 518.911 160.398 518.911L234.715 493.044C234.715 493.044 313.763 518.427 327.034 522.426C327.034 522.426 336.188 498.945 335.881 497.429C333.058 483.473 329.381 492.914 329.381 492.914L245.332 450.919C245.332 450.919 232.061 446.919 209.058 457.918C186.055 468.917 124.431 495.429 124.431 495.429L77.2333 485.915Z" fill="#2F2E41"/>
<path d="M77.5398 483.431C77.5398 483.431 73.1134 531.962 98.9684 539.376C123.546 546.424 157.447 539.194 157.447 539.194L197.863 534.425C197.863 534.425 199.633 593.114 199.633 622.11C207.844 623.372 216.118 624.04 224.405 624.11C226.175 624.11 226.292 623.062 226.292 623.062L229.718 521.63C229.959 517.22 229.38 512.802 228.019 508.66C226.657 504.518 224.544 500.744 221.814 497.581C219.085 494.418 215.799 491.936 212.17 490.294C208.54 488.652 204.646 487.888 200.739 488.049C198.832 488.131 196.83 488.284 194.735 488.507C169.872 491.202 139.006 485.474 139.006 485.474L77.5398 483.431Z" fill="#2F2E41"/>
<path d="M149.255 413.027C149.255 413.027 159.751 484.763 152.658 490.489C145.564 496.216 135.837 496.238 135.837 496.238L133.575 456.63L149.255 413.027Z" fill="#2F2E41"/>
<path d="M131.748 324.926L145.782 339.998C152.306 347.003 156.629 356.221 158.098 366.254C159.567 376.288 158.101 386.588 153.922 395.595L147.213 410.053L131.748 324.926Z" fill="#2F2E41"/>
<path d="M128.61 327.46L147.626 351.939C151.8 357.312 154.386 364.022 155.025 371.135V371.135C155.315 374.365 155.198 377.624 154.678 380.817L147.512 424.846L142.125 488.43C142.125 488.43 100.54 502.67 96.2834 480.681C92.027 458.693 128.61 327.46 128.61 327.46Z" fill="#28D3DE"/>
<path d="M110.76 494.406C83.4237 489.258 76.7272 488.235 76.3101 488.055L75.8923 487.875L78.6323 469.293L90.2025 437.162C90.9539 426.651 95.8273 412.41 93.0393 400.972C84.9345 367.719 98.1023 320.728 104.124 317.128L120.818 304.76L126.678 310.832L136.839 326.907C145.199 368.993 150.973 408.22 150.692 410.618L145.532 451.82L139.452 467.625C121.008 477.683 133.41 498.672 110.76 494.406Z" fill="#2F2E41"/>
<path d="M160.252 464.179L203.174 451.201L206.953 450.188L209.648 449.465L212.789 448.626L212.814 448.619C213.27 448.501 213.749 448.592 214.147 448.87L230.084 470.465C230.228 470.565 230.355 470.694 230.459 470.846C230.502 470.885 230.54 470.93 230.573 470.98C230.749 471.252 230.863 471.569 230.906 471.903C230.949 472.236 230.918 472.577 230.816 472.894C230.715 473.211 230.546 473.495 230.325 473.721C230.104 473.947 229.837 474.108 229.547 474.19L165.517 490.843C165.185 490.928 164.839 490.905 164.518 490.777C164.197 490.649 163.915 490.421 163.704 490.12L163.054 489.168L159.511 469.885L159.259 467.381C159.098 467.149 158.984 466.88 158.926 466.593C158.823 466.075 158.905 465.531 159.153 465.08C159.401 464.628 159.796 464.305 160.252 464.179V464.179Z" fill="#E6E6E6"/>
<path opacity="0.17" d="M163.054 489.167L163.707 490.121C163.918 490.422 164.199 490.649 164.519 490.777C164.839 490.905 165.184 490.929 165.516 490.845L229.548 474.191C229.838 474.109 230.105 473.948 230.326 473.723C230.547 473.497 230.716 473.213 230.817 472.896C230.918 472.579 230.949 472.238 230.906 471.905C230.863 471.571 230.748 471.255 230.572 470.984C230.541 470.932 230.503 470.887 230.46 470.848L163.054 489.167Z" fill="black"/>
<path d="M212.469 448.485L211.311 356.23C211.262 355.675 211.411 355.12 211.724 354.689L219.929 335.39L220.781 334.219C221.098 333.791 221.55 333.521 222.042 333.466L223.828 333.278C224.32 333.223 224.811 333.391 225.193 333.746C225.575 334.1 225.817 334.612 225.865 335.168V335.168L227.473 432.78L227.475 432.787L228.272 442.186L229.216 453.347L229.219 453.361L230.692 470.725C230.72 471.022 230.69 471.322 230.605 471.605C230.52 471.888 230.382 472.146 230.2 472.362C230.022 472.581 229.805 472.755 229.563 472.872C229.322 472.989 229.061 473.047 228.798 473.041L227.636 473.014C227.19 473.001 226.763 472.811 226.429 472.476L225.779 471.816L225.478 471.506L213.085 449.856C212.733 449.504 212.513 449.014 212.469 448.485V448.485Z" fill="#E6E6E6"/>
<path opacity="0.17" d="M219.932 335.39L225.477 471.51L225.78 471.816L226.428 472.474C226.761 472.809 227.189 473 227.635 473.012L228.798 473.039C229.061 473.044 229.323 472.986 229.565 472.869C229.807 472.752 230.024 472.579 230.203 472.36C230.382 472.142 230.518 471.884 230.602 471.602C230.687 471.32 230.718 471.021 230.693 470.725L225.863 335.171C225.815 334.615 225.575 334.102 225.193 333.747C224.812 333.391 224.321 333.221 223.829 333.274L222.039 333.468C221.796 333.493 221.56 333.573 221.345 333.702C221.129 333.832 220.939 334.008 220.784 334.222L219.932 335.39Z" fill="black"/>
<path d="M220.398 340.89L212.894 361.823L213.823 424.442L221.946 437.72L220.398 340.89Z" fill="#28D3DE"/>
<path d="M165.199 463.627C164.788 463.759 164.441 464.07 164.233 464.492C164.026 464.914 163.974 465.411 164.091 465.876L167.397 481.445L170.494 480.448L167.189 464.879C167.072 464.415 166.796 464.022 166.423 463.787C166.05 463.553 165.61 463.495 165.199 463.627V463.627Z" fill="#2F2E41"/>
<path d="M171.394 461.633C170.983 461.766 170.636 462.077 170.428 462.499C170.22 462.92 170.169 463.418 170.286 463.882L170.992 466.682L174.089 465.686L173.383 462.885C173.266 462.421 172.991 462.029 172.618 461.794C172.245 461.559 171.804 461.501 171.394 461.633Z" fill="#2F2E41"/>
<path d="M177.588 459.64C177.178 459.772 176.83 460.083 176.623 460.505C176.415 460.927 176.364 461.424 176.481 461.889L177.186 464.689L180.284 463.692L179.578 460.892C179.461 460.428 179.186 460.035 178.813 459.8C178.439 459.566 177.999 459.508 177.588 459.64V459.64Z" fill="#2F2E41"/>
<path d="M183.783 457.646C183.372 457.779 183.025 458.09 182.817 458.512C182.61 458.933 182.559 459.431 182.675 459.895L183.381 462.695L186.478 461.699L185.773 458.898C185.656 458.434 185.38 458.042 185.007 457.807C184.634 457.572 184.194 457.514 183.783 457.646V457.646Z" fill="#2F2E41"/>
<path d="M189.978 455.653C189.567 455.785 189.22 456.096 189.012 456.518C188.804 456.94 188.753 457.437 188.87 457.902L189.576 460.702L192.673 459.705L191.968 456.905C191.85 456.441 191.575 456.048 191.202 455.813C190.829 455.579 190.389 455.521 189.978 455.653V455.653Z" fill="#2F2E41"/>
<path d="M196.173 453.659C195.762 453.792 195.415 454.103 195.207 454.525C194.999 454.946 194.948 455.444 195.065 455.908L195.771 458.708L198.868 457.712L198.162 454.911C198.045 454.447 197.77 454.055 197.397 453.82C197.024 453.585 196.583 453.527 196.173 453.659Z" fill="#2F2E41"/>
<path d="M202.367 451.666C201.957 451.798 201.609 452.11 201.402 452.531C201.194 452.953 201.143 453.45 201.26 453.915L201.965 456.715L205.063 455.718L204.357 452.918C204.24 452.454 203.965 452.061 203.592 451.826C203.218 451.592 202.778 451.534 202.367 451.666V451.666Z" fill="#2F2E41"/>
<path d="M208.562 449.672C208.151 449.805 207.804 450.116 207.596 450.538C207.389 450.959 207.338 451.457 207.454 451.921L208.16 454.722L211.257 453.725L210.552 450.924C210.435 450.46 210.159 450.068 209.786 449.833C209.413 449.598 208.973 449.54 208.562 449.672V449.672Z" fill="#2F2E41"/>
<path d="M172.694 468.018C172.283 468.15 171.936 468.461 171.728 468.883C171.52 469.305 171.469 469.802 171.586 470.266L172.292 473.067L175.389 472.07L174.683 469.27C174.566 468.806 174.291 468.413 173.918 468.178C173.545 467.944 173.105 467.886 172.694 468.018V468.018Z" fill="#2F2E41"/>
<path d="M178.888 466.024C178.478 466.157 178.13 466.468 177.923 466.89C177.715 467.311 177.664 467.809 177.781 468.273L178.486 471.073L181.584 470.077L180.878 467.276C180.761 466.812 180.486 466.42 180.113 466.185C179.739 465.95 179.299 465.892 178.888 466.024Z" fill="#2F2E41"/>
<path d="M185.083 464.031C184.673 464.163 184.325 464.474 184.117 464.896C183.91 465.318 183.859 465.815 183.975 466.28L184.681 469.08L187.778 468.083L187.073 465.283C186.956 464.819 186.68 464.426 186.307 464.191C185.934 463.957 185.494 463.899 185.083 464.031Z" fill="#2F2E41"/>
<path d="M191.278 462.037C190.867 462.17 190.52 462.481 190.312 462.903C190.104 463.324 190.053 463.822 190.17 464.286L190.876 467.086L193.973 466.09L193.268 463.289C193.15 462.825 192.875 462.433 192.502 462.198C192.129 461.963 191.689 461.905 191.278 462.037Z" fill="#2F2E41"/>
<path d="M197.473 460.044C197.062 460.176 196.715 460.487 196.507 460.909C196.299 461.331 196.248 461.828 196.365 462.293L197.071 465.093L200.168 464.096L199.462 461.296C199.345 460.832 199.07 460.439 198.697 460.204C198.324 459.97 197.883 459.912 197.473 460.044V460.044Z" fill="#2F2E41"/>
<path d="M203.667 458.05C203.257 458.183 202.909 458.494 202.702 458.916C202.494 459.337 202.443 459.835 202.56 460.299L203.265 463.1L206.363 462.103L205.657 459.302C205.54 458.838 205.265 458.446 204.892 458.211C204.518 457.976 204.078 457.918 203.667 458.05V458.05Z" fill="#2F2E41"/>
<path d="M209.862 456.057C209.451 456.189 209.104 456.501 208.896 456.922C208.689 457.344 208.638 457.841 208.754 458.306L209.46 461.106L212.557 460.109L211.852 457.309C211.735 456.845 211.459 456.452 211.086 456.217C210.713 455.983 210.273 455.925 209.862 456.057Z" fill="#2F2E41"/>
<path d="M173.994 474.402C173.583 474.535 173.236 474.846 173.028 475.268C172.82 475.689 172.769 476.187 172.886 476.651L173.592 479.451L176.689 478.455L175.983 475.654C175.866 475.19 175.591 474.798 175.218 474.563C174.845 474.328 174.405 474.27 173.994 474.402V474.402Z" fill="#2F2E41"/>
<path d="M180.189 472.409C179.778 472.541 179.431 472.852 179.223 473.274C179.015 473.696 178.964 474.193 179.081 474.658L179.786 477.458L182.884 476.461L182.178 473.661C182.061 473.197 181.786 472.804 181.413 472.569C181.04 472.335 180.599 472.277 180.189 472.409V472.409Z" fill="#2F2E41"/>
<path d="M186.383 470.415C185.973 470.548 185.625 470.859 185.418 471.281C185.21 471.702 185.159 472.2 185.276 472.664L185.981 475.464L189.079 474.468L188.373 471.667C188.256 471.203 187.981 470.811 187.607 470.576C187.234 470.341 186.794 470.283 186.383 470.415Z" fill="#2F2E41"/>
<path d="M192.578 468.422C192.167 468.554 191.82 468.865 191.612 469.287C191.405 469.709 191.354 470.206 191.47 470.671L192.176 473.471L195.273 472.474L194.568 469.674C194.451 469.21 194.175 468.817 193.802 468.582C193.429 468.348 192.989 468.29 192.578 468.422Z" fill="#2F2E41"/>
<path d="M198.773 466.428C198.362 466.561 198.015 466.872 197.807 467.294C197.599 467.715 197.548 468.213 197.665 468.677L198.371 471.477L201.468 470.481L200.762 467.68C200.645 467.216 200.37 466.824 199.997 466.589C199.624 466.354 199.183 466.296 198.773 466.428V466.428Z" fill="#2F2E41"/>
<path d="M204.967 464.435C204.557 464.567 204.209 464.879 204.002 465.3C203.794 465.722 203.743 466.219 203.86 466.684L204.565 469.484L207.663 468.487L206.957 465.687C206.84 465.223 206.565 464.83 206.192 464.595C205.818 464.361 205.378 464.303 204.967 464.435Z" fill="#2F2E41"/>
<path d="M211.162 462.441C210.752 462.574 210.404 462.885 210.197 463.307C209.989 463.728 209.938 464.226 210.055 464.69L210.76 467.49L213.857 466.494L213.152 463.693C213.035 463.229 212.759 462.837 212.386 462.602C212.013 462.367 211.573 462.309 211.162 462.441V462.441Z" fill="#2F2E41"/>
<path d="M192.962 450.359C192.131 448.95 191.037 447.764 189.757 446.885C188.477 446.005 187.041 445.454 185.552 445.269C184.063 445.085 182.556 445.271 181.137 445.816C179.719 446.361 178.423 447.25 177.342 448.422L155.894 437.795L147.001 450.95L177.476 465.477C179.338 467.399 181.76 468.483 184.282 468.523C186.804 468.562 189.252 467.555 191.161 465.692C193.069 463.828 194.307 461.238 194.639 458.412C194.971 455.586 194.375 452.721 192.962 450.359V450.359Z" fill="#FFB6B6"/>
<path d="M137.711 457.757C127.096 456.074 113.606 446.761 98.2478 430.431C97.39 429.537 96.7059 428.45 96.2389 427.241C95.772 426.032 95.5323 424.726 95.5351 423.407C95.3961 414.202 104.681 403.261 105.588 402.215L116.908 378.154C117.053 377.757 121.049 367.203 128.144 364.349C129.636 363.763 131.223 363.549 132.795 363.722C134.367 363.894 135.887 364.45 137.251 365.349C149.199 372.529 134.396 410.981 132.395 416.014L147.974 427.535L157.62 436.847L171.914 440.864L165.416 460.84L143.314 457.904C141.448 458.117 139.566 458.068 137.711 457.757V457.757Z" fill="#2F2E41"/>
<path d="M158.644 275.759C160.434 258.881 150.042 243.596 135.433 241.617C120.825 239.639 107.532 251.718 105.743 268.596C103.954 285.473 114.346 300.759 128.954 302.737C143.562 304.715 156.855 292.637 158.644 275.759Z" fill="#FFB6B6"/>
<path d="M62.8193 249.339C67.9435 244.023 70.9145 236.45 75.2222 230.208C79.5299 223.966 86.4231 218.791 92.8648 221.251C97.3054 222.948 100.344 227.967 101.589 233.273C102.834 238.578 102.576 244.209 102.308 249.722C103.39 238.463 111.1 228.451 120.51 226.085C129.919 223.72 140.301 229.185 145.016 238.987C147.767 236.729 151.156 235.689 154.539 236.066C157.923 236.443 161.066 238.21 163.374 241.032C167.906 246.845 167.994 256.754 163.569 262.787C159.144 268.82 150.803 270.161 145.256 265.732L142.928 267.628C143.614 272.453 140.741 277.654 136.707 278.889C133.436 279.891 129.056 279.058 127.496 282.6C126.406 285.075 127.639 288.041 129.05 290.248C130.461 292.454 132.17 294.767 132.073 297.543C131.928 301.731 127.826 304.123 124.286 304.531C115.747 305.516 106.983 299.915 103.07 290.974C102.995 290.802 102.911 290.628 102.82 290.453C100.543 286.203 99.0572 281.473 98.4525 276.552C97.8479 271.631 98.1373 266.623 99.3032 261.833C99.776 259.953 99.6555 258.49 98.5344 257.878C93.6886 255.232 79.0927 257.432 74.4131 260.573C69.7331 263.715 65.7794 268.175 61.2318 271.578C56.6839 274.98 51.1 277.324 45.9734 275.536C41.8674 274.103 38.6617 270.176 36.7001 265.696C34.7389 261.217 33.87 256.187 33.142 251.208C41.7814 258.524 54.7536 257.708 62.8193 249.339Z" fill="#2F2E41"/>
<path d="M58.7906 449.655L58.8039 449.634L58.7906 449.675V449.655Z" fill="#2F2E41"/>
</svg>
