<svg width="1070" height="461" viewBox="0 0 1070 461" fill="none" xmlns="http://www.w3.org/2000/svg">
<path d="M650.755 235.111L713.391 169.638L650.755 104.165L669.851 84.2098L751.583 169.638L669.851 255.066L650.755 235.111Z" fill="#E6E6E6"/>
<path d="M497.349 143.372H471.887V170.068H497.349V143.372Z" fill="#E6E6E6"/>
<path d="M599.704 143.372H574.243V170.068H599.704V143.372Z" fill="#E6E6E6"/>
<path d="M548.527 143.372H523.065V170.068H548.527V143.372Z" fill="#E6E6E6"/>
<path d="M437.387 234.444L374.688 168.971L437.324 103.498L418.227 83.5429L336.56 168.971L418.291 254.399L437.387 234.444Z" fill="#E6E6E6"/>
<path d="M650.755 222.431L713.391 156.958L650.755 91.4842L669.851 71.5287L751.583 156.958L669.851 242.386L650.755 222.431Z" fill="#6B09BF"/>
<path d="M471.887 161.629H497.349V134.933H471.887L471.887 161.629ZM599.704 134.933H574.243V161.629H599.704V134.933ZM523.065 161.629H548.527V134.933H523.065V161.629Z" fill="#6B09BF"/>
<path d="M437.387 221.763L374.688 156.29L437.324 90.8172L418.227 70.8617L336.56 156.29L418.291 241.718L437.387 221.763Z" fill="#6B09BF"/>
<path d="M922.942 278.833C921.962 277.661 921.238 276.278 920.822 274.781C920.407 273.284 920.309 271.71 920.537 270.17C920.764 268.629 921.311 267.16 922.139 265.865C922.966 264.57 924.055 263.481 925.327 262.675L917.809 225.611L935.295 232.794L939.754 266.889C940.904 269.221 941.198 271.913 940.582 274.457C939.965 277 938.48 279.218 936.407 280.691C934.335 282.163 931.82 282.787 929.338 282.444C926.856 282.102 924.581 280.817 922.942 278.833V278.833Z" fill="#FFB8B8"/>
<path d="M920.956 249.914L920.862 249.549C911.41 212.891 901.638 174.995 889.709 133.734L889.631 133.464L889.894 133.303C896.543 129.235 906.537 129.506 913.14 133.933C916.13 135.951 918.455 138.884 919.802 142.335C921.148 145.785 921.451 149.586 920.668 153.222L929.369 200.789C932.907 216.337 936.568 232.431 940.067 248.3L940.166 248.75L939.624 248.787C933.253 249.211 926.671 249.651 921.398 249.893L920.956 249.914Z" fill="#CCCCCC"/>
<path d="M840.621 447.213H828.222L822.322 397.071H840.621V447.213Z" fill="#FFB8B8"/>
<path d="M843.784 459.815H803.805V459.285C803.81 454.959 805.451 450.812 808.368 447.753C811.285 444.695 815.241 442.974 819.367 442.969H843.784L843.784 459.815Z" fill="#2F2E41"/>
<path d="M957.457 436.49L945.642 440.436L925.5 394.539L942.937 388.713L957.457 436.49Z" fill="#FFB8B8"/>
<path d="M926.027 460.216L925.873 459.711C924.625 455.588 924.988 451.114 926.882 447.271C928.776 443.428 932.046 440.529 935.976 439.211L959.241 431.439L964.119 447.489L926.027 460.216Z" fill="#2F2E41"/>
<path d="M894.701 100.141C908.42 100.141 919.541 88.4801 919.541 74.0962C919.541 59.7124 908.42 48.0519 894.701 48.0519C880.983 48.0519 869.861 59.7124 869.861 74.0962C869.861 88.4801 880.983 100.141 894.701 100.141Z" fill="#FFB8B8"/>
<path d="M905.853 69.2693C905.995 58.7647 901.802 48.3612 895.319 43.1307C892.263 40.5926 888.463 39.2447 884.565 39.3169C880.668 39.3891 876.915 40.877 873.947 43.5267C867.564 48.9956 863.568 59.5508 863.906 70.0465C878.207 70.0892 892.508 70.1318 905.853 69.2693Z" fill="#2F2E41"/>
<path d="M847.7 431.073L847.203 431.022C836.416 429.912 825.262 428.766 814.721 428.634L814.148 428.627L814.226 428.032C816.723 409.066 817.782 389.349 818.806 370.281C819.817 351.453 820.862 331.984 823.297 313.493C824.327 308.542 825.331 303.65 826.332 298.775C834.61 258.434 842.43 220.331 858.57 182.613L858.723 182.257L859.092 182.303C874.237 184.225 888.789 190.018 900.067 198.615L900.286 198.782L900.275 199.065C900.058 204.923 899.832 210.98 900.166 216.497C905.285 223.954 908.677 232.56 910.073 241.631C911.469 250.701 910.831 259.989 908.21 268.756C912.651 284.318 917.242 300.404 921.927 316.272C933.303 348.972 945.074 382.813 957.141 417.116L957.339 417.678L956.783 417.815C948.101 419.952 939.144 422.156 930.309 423.011L929.975 423.043L929.817 422.734C907.285 378.77 888.962 332.574 875.115 284.824C872.1 294.465 867.756 303.168 863.548 311.597C859.523 319.264 855.982 327.2 852.947 335.352C851.084 351.386 850.59 368.758 850.113 385.558C849.661 401.442 849.235 416.445 847.755 430.552L847.7 431.073Z" fill="#2F2E41"/>
<path d="M886.221 43.6125C896.988 41.1803 908.897 43.4942 917.353 51.1109C925.808 58.7276 930.102 71.9042 926.628 83.2048C923.155 94.5054 911.361 102.456 900.698 99.5382C903.752 90.5118 900.315 79.4295 892.848 74.2302C883.992 68.0643 881.554 53.3436 886.221 43.6125Z" fill="#2F2E41"/>
<path d="M899.293 199.748L898.899 199.56C885.164 192.989 871.696 187.948 859.077 183.348L858.69 183.261L858.689 182.084L858.94 182.176C858.993 182.054 859.052 181.915 859.112 181.777C859.284 181.377 859.402 181.105 859.502 180.924L859.499 180.923C860.551 178.675 861.388 176.503 862.196 174.403C863.031 172.235 863.892 169.996 865.005 167.628C862.307 164.791 860.46 161.188 859.691 157.263C858.923 153.339 859.267 149.264 860.68 145.542C863.468 138.614 870.576 133.219 878.044 132.324C880.78 124.425 886.878 107.829 886.878 107.829C886.878 107.829 899.7 107.46 904.856 106.774L904.943 106.762L905.028 106.782C916.285 109.368 925.683 120.537 927.882 133.943C929.738 145.257 926.92 158.198 919.946 170.384C916.368 176.343 912.411 182.042 908.103 187.444C904.962 191.562 901.995 195.452 899.531 199.369L899.293 199.748Z" fill="#CCCCCC"/>
<path d="M924.155 59.0461C916.618 57.8665 910.7 49.7884 911.557 41.849C912.414 33.9096 919.903 27.4219 927.501 28.0378C935.099 28.6536 941.549 36.271 941.231 44.2542C940.914 52.2374 933.778 60.5523 924.155 59.0461Z" fill="#2F2E41"/>
<path d="M922.979 53.8981C915.442 52.7185 909.524 44.6404 910.381 36.701C910.754 34.0005 911.774 31.4432 913.345 29.2674C914.915 27.0916 916.986 25.3683 919.363 24.2579C913.285 25.6528 908.054 31.2061 907.347 37.7614C906.49 45.7008 912.408 53.7789 919.944 54.9585C922.753 55.4206 925.629 54.9988 928.209 53.7465C926.488 54.1253 924.717 54.1767 922.979 53.8981V53.8981Z" fill="#2F2E41"/>
<path d="M776.78 193.846C777.507 192.486 778.51 191.31 779.718 190.401C780.925 189.491 782.308 188.87 783.769 188.582C785.23 188.294 786.734 188.344 788.174 188.731C789.614 189.118 790.956 189.831 792.105 190.821L822.93 171.039L822.296 190.719L793.122 206.487C791.409 208.4 789.086 209.589 786.593 209.826C784.1 210.064 781.611 209.335 779.596 207.777C777.582 206.219 776.183 203.94 775.664 201.372C775.145 198.805 775.542 196.127 776.78 193.846V193.846Z" fill="#FFB8B8"/>
<path d="M802.124 182.247L802.42 182.033C832.236 160.474 863.058 138.188 896.187 112.647L896.404 112.48L896.637 112.687C902.51 117.904 905.597 127.875 903.816 135.878C902.997 139.506 901.134 142.782 898.48 145.262C895.826 147.743 892.509 149.309 888.978 149.747L849.103 174.197C836.299 182.874 823.047 191.856 809.942 200.602L809.571 200.85L809.357 200.327C806.853 194.17 804.265 187.81 802.29 182.678L802.124 182.247Z" fill="#CCCCCC"/>
<path d="M1068.99 461H683.667C683.399 461 683.142 460.888 682.952 460.689C682.763 460.491 682.656 460.221 682.656 459.94C682.656 459.658 682.763 459.389 682.952 459.19C683.142 458.991 683.399 458.879 683.667 458.879H1068.99C1069.26 458.879 1069.51 458.991 1069.7 459.19C1069.89 459.389 1070 459.658 1070 459.94C1070 460.221 1069.89 460.491 1069.7 460.689C1069.51 460.888 1069.26 461 1068.99 461Z" fill="#3F3D56"/>
</svg>
